HIERARCHY
ROOT Hips
{
	OFFSET 0.000000 100.481300 0.000000
	CHANNELS 6 Xposition Yposition Zposition Xrotation Yrotation Zrotation
	JOINT Spine
	{
		OFFSET -0.279200 12.230698 -2.892100
		CHANNELS 3 Xrotation Yrotation Zrotation
		JOINT Spine1
		{
			OFFSET -0.325700 14.269203 -3.374200
			CHANNELS 3 Xrotation Yrotation Zrotation
			JOINT Spine2
			{
				OFFSET -0.372300 16.307602 -0.352600
				CHANNELS 3 Xrotation Yrotation Zrotation
				JOINT Neck
				{
					OFFSET -0.418800 17.814194 8.416900
					CHANNELS 3 Xrotation Yrotation Zrotation
					JOINT Head
					{
						OFFSET 0.000000 7.031097 3.806800
						CHANNELS 3 Xrotation Yrotation Zrotation
						JOINT HeadTop_End
						{
							OFFSET 0.000000 24.646606 12.978600
							CHANNELS 3 Xrotation Yrotation Zrotation
							End Site
							{
								OFFSET 0.000000 27.854965 0.000000
							}
						}
					}
				}
				JOINT LeftShoulder
				{
					OFFSET 16.952999 14.495407 -7.737500
					CHANNELS 3 Xrotation Yrotation Zrotation
					JOINT LeftArm
					{
						OFFSET 9.308998 -2.777710 0.208600
						CHANNELS 3 Xrotation Yrotation Zrotation
						JOINT LeftForeArm
						{
							OFFSET 29.972298 0.000000 0.000000
							CHANNELS 3 Xrotation Yrotation Zrotation
							JOINT LeftHand
							{
								OFFSET 26.026505 0.000000 0.000000
								CHANNELS 3 Xrotation Yrotation Zrotation
								JOINT LeftHandThumb1
								{
									OFFSET 12.240501 -7.147949 9.207150
									CHANNELS 3 Xrotation Yrotation Zrotation
									JOINT LeftHandThumb2
									{
										OFFSET 4.138618 -2.389435 2.389433
										CHANNELS 3 Xrotation Yrotation Zrotation
										JOINT LeftHandThumb3
										{
											OFFSET 2.726913 -1.574387 1.574386
											CHANNELS 3 Xrotation Yrotation Zrotation
											JOINT LeftHandThumb4
											{
												OFFSET 3.941010 -2.275345 2.275342
												CHANNELS 3 Xrotation Yrotation Zrotation
												End Site
												{
													OFFSET -0.005798 5.087799 0.009903
												}
											}
										}
									}
								}
								JOINT LeftHandIndex1
								{
									OFFSET 24.424698 -1.985611 5.953459
									CHANNELS 3 Xrotation Yrotation Zrotation
									JOINT LeftHandIndex2
									{
										OFFSET 6.426697 0.000000 0.000000
										CHANNELS 3 Xrotation Yrotation Zrotation
										JOINT LeftHandIndex3
										{
											OFFSET 5.337898 0.000000 0.000000
											CHANNELS 3 Xrotation Yrotation Zrotation
											JOINT LeftHandIndex4
											{
												OFFSET 4.409401 0.000000 0.000000
												CHANNELS 3 Xrotation Yrotation Zrotation
												End Site
												{
													OFFSET 0.000000 4.409363 0.014373
												}
											}
										}
									}
								}
								JOINT LeftHandMiddle1
								{
									OFFSET 23.810104 0.000000 0.000000
									CHANNELS 3 Xrotation Yrotation Zrotation
									JOINT LeftHandMiddle2
									{
										OFFSET 7.176498 0.000000 0.000000
										CHANNELS 3 Xrotation Yrotation Zrotation
										JOINT LeftHandMiddle3
										{
											OFFSET 6.774902 0.000000 0.000000
											CHANNELS 3 Xrotation Yrotation Zrotation
											JOINT LeftHandMiddle4
											{
												OFFSET 5.403328 0.000000 0.000000
												CHANNELS 3 Xrotation Yrotation Zrotation
												End Site
												{
													OFFSET -0.027702 5.403244 0.017414
												}
											}
										}
									}
								}
								JOINT LeftHandRing1
								{
									OFFSET 22.908401 -0.839279 -6.020567
									CHANNELS 3 Xrotation Yrotation Zrotation
									JOINT LeftHandRing2
									{
										OFFSET 6.337502 0.000000 0.000000
										CHANNELS 3 Xrotation Yrotation Zrotation
										JOINT LeftHandRing3
										{
											OFFSET 5.779297 0.000000 0.000000
											CHANNELS 3 Xrotation Yrotation Zrotation
											JOINT LeftHandRing4
											{
												OFFSET 4.965698 0.000000 0.000000
												CHANNELS 3 Xrotation Yrotation Zrotation
												End Site
												{
													OFFSET 0.000000 4.965668 0.016186
												}
											}
										}
									}
								}
								JOINT LeftHandPinky1
								{
									OFFSET 20.037003 -1.530319 -10.950146
									CHANNELS 3 Xrotation Yrotation Zrotation
									JOINT LeftHandPinky2
									{
										OFFSET 5.254700 0.000000 0.000000
										CHANNELS 3 Xrotation Yrotation Zrotation
										JOINT LeftHandPinky3
										{
											OFFSET 4.810204 0.000000 0.000000
											CHANNELS 3 Xrotation Yrotation Zrotation
											JOINT LeftHandPinky4
											{
												OFFSET 3.647202 0.000000 0.000000
												CHANNELS 3 Xrotation Yrotation Zrotation
												End Site
												{
													OFFSET 0.000000 3.647186 0.011889
												}
											}
										}
									}
								}
							}
						}
					}
				}
				JOINT RightShoulder
				{
					OFFSET -15.141001 14.495407 -7.737500
					CHANNELS 3 Xrotation Yrotation Zrotation
					JOINT RightArm
					{
						OFFSET -9.308998 -2.777710 0.208500
						CHANNELS 3 Xrotation Yrotation Zrotation
						JOINT RightForeArm
						{
							OFFSET -29.972300 0.000000 0.000000
							CHANNELS 3 Xrotation Yrotation Zrotation
							JOINT RightHand
							{
								OFFSET -26.026505 0.000000 0.000000
								CHANNELS 3 Xrotation Yrotation Zrotation
								JOINT RightHandThumb1
								{
									OFFSET -12.240601 -7.148026 9.207092
									CHANNELS 3 Xrotation Yrotation Zrotation
									JOINT RightHandThumb2
									{
										OFFSET -4.138618 -2.389435 2.389433
										CHANNELS 3 Xrotation Yrotation Zrotation
										JOINT RightHandThumb3
										{
											OFFSET -2.726974 -1.574417 1.574421
											CHANNELS 3 Xrotation Yrotation Zrotation
											JOINT RightHandThumb4
											{
												OFFSET -3.941010 -2.275345 2.275343
												CHANNELS 3 Xrotation Yrotation Zrotation
												End Site
												{
													OFFSET 0.005814 5.087799 0.009927
												}
											}
										}
									}
								}
								JOINT RightHandIndex1
								{
									OFFSET -24.424698 -1.985657 5.953444
									CHANNELS 3 Xrotation Yrotation Zrotation
									JOINT RightHandIndex2
									{
										OFFSET -6.426697 0.000000 0.000000
										CHANNELS 3 Xrotation Yrotation Zrotation
										JOINT RightHandIndex3
										{
											OFFSET -5.337898 0.000000 0.000000
											CHANNELS 3 Xrotation Yrotation Zrotation
											JOINT RightHandIndex4
											{
												OFFSET -4.409401 0.000000 0.000000
												CHANNELS 3 Xrotation Yrotation Zrotation
												End Site
												{
													OFFSET 0.000000 4.409363 0.014408
												}
											}
										}
									}
								}
								JOINT RightHandMiddle1
								{
									OFFSET -23.810097 0.000000 0.000000
									CHANNELS 3 Xrotation Yrotation Zrotation
									JOINT RightHandMiddle2
									{
										OFFSET -7.176498 0.000000 0.000000
										CHANNELS 3 Xrotation Yrotation Zrotation
										JOINT RightHandMiddle3
										{
											OFFSET -6.774902 0.000000 0.000000
											CHANNELS 3 Xrotation Yrotation Zrotation
											JOINT RightHandMiddle4
											{
												OFFSET -5.403328 0.000000 0.000000
												CHANNELS 3 Xrotation Yrotation Zrotation
												End Site
												{
													OFFSET 0.027702 5.403244 0.017457
												}
											}
										}
									}
								}
								JOINT RightHandRing1
								{
									OFFSET -22.908302 -0.839325 -6.020576
									CHANNELS 3 Xrotation Yrotation Zrotation
									JOINT RightHandRing2
									{
										OFFSET -6.337502 0.000000 0.000000
										CHANNELS 3 Xrotation Yrotation Zrotation
										JOINT RightHandRing3
										{
											OFFSET -5.779297 0.000000 0.000000
											CHANNELS 3 Xrotation Yrotation Zrotation
											JOINT RightHandRing4
											{
												OFFSET -4.965698 0.000000 0.000000
												CHANNELS 3 Xrotation Yrotation Zrotation
												End Site
												{
													OFFSET 0.000000 4.965668 0.016226
												}
											}
										}
									}
								}
								JOINT RightHandPinky1
								{
									OFFSET -20.037003 -1.530334 -10.950259
									CHANNELS 3 Xrotation Yrotation Zrotation
									JOINT RightHandPinky2
									{
										OFFSET -5.254700 0.000000 0.000000
										CHANNELS 3 Xrotation Yrotation Zrotation
										JOINT RightHandPinky3
										{
											OFFSET -4.810204 0.000000 0.000000
											CHANNELS 3 Xrotation Yrotation Zrotation
											JOINT RightHandPinky4
											{
												OFFSET -3.647202 0.000000 0.000000
												CHANNELS 3 Xrotation Yrotation Zrotation
												End Site
												{
													OFFSET 0.000000 3.647186 0.011917
												}
											}
										}
									}
								}
							}
						}
					}
				}
			}
		}
	}
	JOINT LeftUpLeg
	{
		OFFSET 15.427100 -6.655098 0.678600
		CHANNELS 3 Xrotation Yrotation Zrotation
		JOINT LeftLeg
		{
			OFFSET 4.081073 -39.591068 13.024000
			CHANNELS 3 Xrotation Yrotation Zrotation
			JOINT LeftFoot
			{
				OFFSET -4.081074 -37.707932 -15.979700
				CHANNELS 3 Xrotation Yrotation Zrotation
				JOINT LeftToeBase
				{
					OFFSET 5.346399 -15.068900 20.645000
					CHANNELS 3 Xrotation Yrotation Zrotation
					JOINT LeftToe_End
					{
						OFFSET 2.754700 0.931300 11.300900
						CHANNELS 3 Xrotation Yrotation Zrotation
						End Site
						{
							OFFSET 0.000000 11.669021 0.000000
						}
					}
				}
			}
		}
	}
	JOINT RightUpLeg
	{
		OFFSET -15.569500 -6.655098 0.678600
		CHANNELS 3 Xrotation Yrotation Zrotation
		JOINT RightLeg
		{
			OFFSET -4.081825 -39.591045 13.023800
			CHANNELS 3 Xrotation Yrotation Zrotation
			JOINT RightFoot
			{
				OFFSET 4.081824 -37.707954 -15.979600
				CHANNELS 3 Xrotation Yrotation Zrotation
				JOINT RightToeBase
				{
					OFFSET -5.346400 -15.068900 20.645000
					CHANNELS 3 Xrotation Yrotation Zrotation
					JOINT RightToe_End
					{
						OFFSET -2.754700 0.931300 11.300900
						CHANNELS 3 Xrotation Yrotation Zrotation
						End Site
						{
							OFFSET 0.000000 11.669021 0.000000
						}
					}
				}
			}
		}
	}
}
MOTION
Frames: 4
Frame Time: 0.033333
0.213579 98.845901 -0.719085 -0.013279 2.193690 -0.897867 -0.123461 0.563889 -0.553094 -0.246092 1.063193 -0.313414 -0.252288 1.424028 1.773580 8.427597 0.576261 3.798095 -6.886739 -2.489480 -5.541855 -0.000000 0.000000 -0.000000 -4.640553 -10.802870 -10.360162 16.240387 -28.514348 -68.254743 -0.000001 -8.786600 0.000011 -30.638309 4.502218 0.193920 3.201222 1.107809 14.066993 6.982894 20.562143 0.969100 -1.674698 20.504684 -0.411595 0.000000 0.000002 -0.000000 0.606785 7.650577 -19.490778 0.321748 2.640485 -18.639549 0.007264 -0.592889 3.763073 -0.000000 -0.000000 -0.000000 0.315025 6.774679 -21.209947 0.366724 2.859340 -20.754802 0.003266 -0.001836 2.787838 0.000000 0.000000 0.000001 -0.841846 4.252538 -27.862111 0.572704 2.329622 -20.794106 0.067862 0.209078 -2.205695 -0.000000 0.000000 -0.000004 -3.213854 -0.352338 -27.515342 0.238015 2.022800 -22.106935 -0.012550 0.776715 0.811881 0.000000 0.000000 0.000002 -1.879339 0.080049 8.486096 19.535733 39.084952 62.976373 0.000004 10.252754 -0.000003 -33.405752 2.025622 -2.756143 -4.305505 -8.788812 -18.447742 10.541746 -12.426572 -1.977050 3.692997 -15.221206 10.218941 0.000001 0.000001 0.000002 1.077534 -9.252168 16.742742 0.248789 -2.408367 16.228482 -0.055766 1.292958 -0.696769 -0.000001 -0.000000 0.000000 1.064295 -8.598501 24.347234 0.481923 -3.155289 23.935732 -0.005021 -0.142456 0.238062 -0.000000 0.000001 -0.000000 -0.417936 -5.541726 31.012781 0.725153 -2.615681 24.040152 -0.039479 1.846170 0.082731 0.000000 0.000000 0.000003 -2.119211 -3.728740 35.353250 0.532621 -2.778988 30.177309 -0.168429 2.154966 0.213900 -0.000000 -0.000001 -0.000001 -5.442921 11.007497 1.608009 7.392493 -3.043861 0.008593 -2.233764 5.881518 0.431029 -0.004278 -0.000000 -0.000000 0.000000 -0.000000 -0.000000 -4.346513 0.692898 0.529251 5.704699 -4.927135 0.391475 -1.320761 2.457705 0.146955 -0.005444 0.000001 0.000001 0.000000 0.000000 0.000000 
0.217906 98.853271 -0.744366 -0.093489 2.151167 -0.869589 -0.112296 0.569705 -0.566000 -0.224111 1.072242 -0.332751 -0.230141 1.433010 1.754252 8.418491 0.575059 3.795688 -6.954513 -2.496760 -5.503533 -0.000000 0.000000 -0.000000 -4.644016 -10.866697 -10.368444 16.414879 -28.314489 -68.086386 0.000002 -8.999103 -0.000004 -30.464874 4.001429 0.420657 3.174430 0.953219 14.013443 7.005227 20.591572 0.849835 -1.743586 20.544468 -0.268125 0.000001 -0.000001 -0.000001 0.602942 7.637413 -19.712194 0.323336 2.645178 -18.688646 0.006763 -0.587980 3.714384 -0.000000 0.000000 0.000002 0.302781 6.754322 -21.505807 0.368722 2.864914 -20.814071 0.003154 0.004045 2.728942 -0.000001 0.000000 -0.000003 -0.876752 4.178575 -27.873720 0.575770 2.335777 -20.863054 0.068853 0.216310 -2.279181 0.000001 0.000000 0.000002 -3.295138 -0.347845 -27.671311 0.238718 2.025070 -22.130522 -0.012430 0.779088 0.788291 0.000000 0.000000 -0.000002 -1.874801 0.059803 8.541462 19.425517 39.072022 63.070766 -0.000003 10.019205 0.000016 -33.502467 2.062399 -2.796938 -4.363554 -8.778564 -18.463694 10.544377 -12.446165 -1.892515 3.786037 -15.144684 10.317103 -0.000000 0.000000 0.000003 1.072090 -9.229974 16.777426 0.248798 -2.408411 16.228951 -0.055766 1.292959 -0.696769 0.000002 0.000000 -0.000002 1.048605 -8.557945 24.495335 0.481946 -3.155347 23.936476 -0.005022 -0.142461 0.238050 -0.000001 0.000001 0.000002 -0.436371 -5.520415 31.132115 0.726178 -2.617489 24.060999 -0.039960 1.843998 0.104317 0.000001 0.000000 0.000002 -2.132653 -3.720932 35.404480 0.532621 -2.778982 30.177313 -0.168423 2.154956 0.213894 0.000001 0.000001 0.000003 -5.346754 11.022896 1.573812 7.339365 -3.050533 -0.008754 -2.160858 5.879223 0.480831 -0.086618 0.000001 -0.000000 -0.000000 -0.000001 -0.000000 -4.273447 0.691160 0.522787 5.687440 -4.890191 0.364938 -1.340186 2.458599 0.130122 -0.031200 0.000003 -0.000001 -0.000000 -0.000000 -0.000000 
0.216461 98.826920 -0.778359 -0.178374 2.120270 -0.863424 -0.097965 0.579911 -0.575713 -0.196452 1.084366 -0.331453 -0.202459 1.444992 1.755572 8.430167 0.568592 3.774685 -7.022123 -2.528333 -5.503543 -0.000000 -0.000000 -0.000000 -4.647738 -10.932295 -10.379887 16.544231 -28.187955 -67.914046 0.000000 -9.151825 0.000006 -30.530567 3.799018 0.480497 3.039239 0.778489 13.991551 7.009916 20.594673 0.834515 -1.786316 20.576609 -0.183487 0.000000 -0.000000 -0.000002 0.592348 7.604893 -20.153665 0.324282 2.647964 -18.717881 0.006467 -0.585092 3.685834 -0.000000 -0.000001 -0.000002 0.287389 6.731463 -21.905170 0.369522 2.867144 -20.837816 0.003110 0.006383 2.705576 -0.000000 0.000001 -0.000003 -0.921642 4.092900 -27.942140 0.577954 2.340150 -20.911961 0.069600 0.221702 -2.334038 0.000000 0.000000 -0.000001 -3.404991 -0.353781 -27.842206 0.237389 2.020782 -22.085994 -0.012652 0.774609 0.832835 0.000000 -0.000000 -0.000002 -1.870729 0.041133 8.521647 19.366822 39.126759 63.170541 -0.000003 9.925914 0.000002 -33.484842 2.131768 -2.677719 -4.397134 -8.755054 -18.463782 10.547220 -12.466722 -1.803474 3.867341 -15.074603 10.397657 -0.000001 0.000001 0.000002 1.070044 -9.223171 16.778718 0.248810 -2.408426 16.229095 -0.055765 1.292958 -0.696773 -0.000001 0.000000 -0.000002 1.041217 -8.538165 24.592581 0.481935 -3.155306 23.936048 -0.005019 -0.142379 0.237206 -0.000000 0.000002 0.000002 -0.438987 -5.518547 31.159098 0.726140 -2.617413 24.060176 -0.039944 1.844067 0.103623 0.000001 0.000000 -0.000001 -2.158881 -3.695878 35.447637 0.532623 -2.778985 30.177299 -0.168425 2.154956 0.213894 0.000000 0.000001 -0.000002 -5.279585 11.031033 1.615759 7.422081 -2.889882 -0.000059 -2.253154 5.888586 0.376935 -0.081947 0.000011 -0.000000 -0.000000 0.000000 0.000000 -4.241609 0.670590 0.529043 5.759173 -4.825913 0.367595 -1.408747 2.458281 0.095562 -0.038221 -0.000001 -0.000001 -0.000000 -0.000000 0.000000 
0.218623 98.785622 -0.819244 -0.253460 2.108064 -0.841491 -0.090595 0.588284 -0.580661 -0.182852 1.095748 -0.328470 -0.188847 1.456295 1.758566 8.443452 0.568063 3.728512 -7.086471 -2.536150 -5.497339 0.000000 0.000000 -0.000000 -4.656758 -11.254371 -10.262101 16.280237 -27.880936 -68.189863 0.000007 -8.780103 0.000012 -31.268989 2.584646 0.530037 2.896111 0.897989 14.075352 7.005669 20.590252 0.853486 -1.839840 20.621594 -0.080473 0.000001 -0.000000 -0.000001 0.585254 7.584251 -20.529559 0.324497 2.648606 -18.724535 0.006406 -0.584462 3.679559 -0.000000 -0.000001 0.000001 0.266037 6.694542 -22.286106 0.371413 2.872393 -20.893738 0.003012 0.011937 2.649978 -0.000001 0.000001 0.000002 -0.960845 4.039473 -28.119759 0.579953 2.344152 -20.956711 0.070283 0.226593 -2.383771 0.000001 -0.000000 0.000000 -3.511784 -0.347901 -28.052963 0.236462 2.017793 -22.054840 -0.012809 0.771478 0.863907 -0.000000 0.000000 0.000000 -1.864715 0.013095 8.449734 19.331619 39.209275 63.294612 0.000005 9.938689 -0.000013 -33.393392 2.167869 -2.669267 -4.399304 -8.736186 -18.453938 10.548565 -12.464068 -1.812534 3.861837 -15.079973 10.393368 -0.000001 0.000002 -0.000001 1.071155 -9.220131 16.831032 0.248809 -2.408441 16.229206 -0.055764 1.292960 -0.696763 -0.000001 0.000000 0.000001 1.043031 -8.538774 24.696827 0.481927 -3.155302 23.935884 -0.005023 -0.142345 0.236906 -0.000002 0.000001 0.000001 -0.446128 -5.513762 31.235305 0.725995 -2.617151 24.057079 -0.039883 1.844353 0.100849 -0.000000 0.000000 0.000002 -2.175892 -3.683636 35.513511 0.530156 -2.773765 30.119918 -0.165774 2.160880 0.156615 0.000001 0.000001 0.000002 -5.270670 11.036146 1.591858 7.544104 -2.901552 -0.000736 -2.391459 5.875611 0.403410 -0.107586 0.000010 0.000001 0.000000 -0.000002 -0.000000 -4.237751 0.663924 0.509165 5.887650 -4.825659 0.357946 -1.555587 2.452529 0.111673 -0.053220 0.000001 0.000000 -0.000000 -0.000000 0.000000 
